<svg width="17" height="14" viewBox="0 0 17 14" fill="none" xmlns="http://www.w3.org/2000/svg">
<path fill-rule="evenodd" clip-rule="evenodd" d="M9.56568 11.3441L12.9322 7.97756L1.33251 7.97756C1.05128 7.97756 0.821852 7.8839 0.635128 7.69717C0.448404 7.51045 0.354736 7.28102 0.354736 6.99979C0.354736 6.71855 0.448404 6.48912 0.635128 6.3024C0.821852 6.11568 1.05128 6.02201 1.33251 6.02201L12.9322 6.02201L9.53791 2.62773C9.33989 2.42971 9.24362 2.19942 9.24362 1.93034C9.24362 1.66126 9.33989 1.43097 9.53791 1.23296C9.73592 1.03494 9.96621 0.938675 10.2353 0.938675C10.5044 0.938675 10.7347 1.03494 10.9327 1.23296L16.016 6.31629C16.1151 6.41542 16.1821 6.51939 16.2208 6.62796C16.2616 6.74214 16.2825 6.86575 16.2825 6.99979C16.2825 7.13382 16.2616 7.25743 16.2208 7.37161C16.1821 7.48018 16.1151 7.58415 16.016 7.68328L10.9049 12.7944C10.7278 12.9715 10.5079 13.0609 10.2353 13.0609C9.96621 13.0609 9.73592 12.9646 9.53791 12.7666C9.34171 12.5704 9.24927 12.3375 9.25746 12.0593C9.26572 11.7784 9.36757 11.5422 9.56568 11.3441Z" fill="#999AA3"/>
</svg>
