<svg width="56" height="56" viewBox="0 0 56 56" fill="none" xmlns="http://www.w3.org/2000/svg">
<circle cx="28" cy="28" r="27.5" stroke="#494A53"/>
<path fill-rule="evenodd" clip-rule="evenodd" d="M26.4346 23.6559L23.0681 27.0225L34.6677 27.0225C34.949 27.0225 35.1784 27.1161 35.3651 27.3028C35.5518 27.4896 35.6455 27.719 35.6455 28.0002C35.6455 28.2815 35.5518 28.5109 35.3651 28.6976C35.1784 28.8843 34.949 28.978 34.6677 28.978L23.0681 28.978L26.4623 32.3723C26.6604 32.5703 26.7566 32.8006 26.7566 33.0697C26.7566 33.3388 26.6604 33.569 26.4623 33.7671C26.2643 33.9651 26.034 34.0613 25.765 34.0613C25.4959 34.0613 25.2656 33.9651 25.0676 33.7671L19.9842 28.6837C19.8851 28.5846 19.8182 28.4806 19.7794 28.372C19.7386 28.2579 19.7177 28.1343 19.7177 28.0002C19.7177 27.8662 19.7386 27.7426 19.7794 27.6284C19.8182 27.5198 19.8851 27.4159 19.9842 27.3167L25.0953 22.2056C25.2724 22.0286 25.4924 21.9391 25.765 21.9391C26.034 21.9391 26.2643 22.0354 26.4623 22.2334C26.6585 22.4296 26.751 22.6626 26.7428 22.9408C26.7345 23.2217 26.6327 23.4578 26.4346 23.6559Z" fill="white"/>
</svg>
