<svg width="1440" height="196" viewBox="0 0 1440 196" fill="none" xmlns="http://www.w3.org/2000/svg">
<path d="M35.4975 165.117H131.186V195.777H0V0.50293H129.643V31.1936H35.4975V82.082H121.926V112.409H35.4975V165.117Z" fill="black" fill-opacity="0.02"/>
<path d="M430.602 195.777H390.173L342.63 125.207L295.121 195.777H254.658L322.567 95.3651L258.819 0.50293H299.08L342.899 65.4932L386.751 0.50293H427.012L363.264 95.3651L430.602 195.777Z" fill="black" fill-opacity="0.02"/>
<path d="M564.874 0.50293H600.371V195.777H564.874V0.50293Z" fill="black" fill-opacity="0.02"/>
<path d="M892.069 0.50293V31.1936H831.14V195.777H795.776V31.1936H734.646V0.50293H892.069Z" fill="black" fill-opacity="0.02"/>
<path d="M1061.84 165.117H1157.53V195.777H1026.34V0.50293H1155.98V31.1936H1061.84V82.082H1148.27V112.409H1061.84V165.117Z" fill="black" fill-opacity="0.02"/>
<path d="M1460.97 195.777H1418.66L1333.47 102.886V195.777H1297.98V0.50293H1333.47V88.1474L1415.57 0.56355H1457.88L1370.65 95.6987L1460.97 195.777Z" fill="black" fill-opacity="0.02"/>
</svg>
